<svg xmlns="http://www.w3.org/2000/svg" viewBox="0 0 720 350.46"><title>13-mountain-valley</title><g id="Layer_2" data-name="Layer 2"><g id="Marks"><path d="M282.08,69.22l5.61-5.82V17.14H274.53l-4.2,3.67-1.08-.76L275.07.22l8.09,1.07h29L320.25.22l5.82,19.83-1.08.76-4.2-3.67H307.64V63.4l5.6,5.82-1.08,1.08h-29Z"/><path d="M356.45,70.3h-29l-1.08-1.08,5.61-6.9v-53l-5.61-6.9,1.08-1.08h29l1.07,1.08-5.6,6.9V26.52h16.17V9.27l-5.61-6.9,1.08-1.08h29l1.08,1.08L388,9.27V62.32l5.6,6.9-1.08,1.08h-29l-1.08-1.08,5.61-6.9v-18H351.92v18l5.6,6.9Z"/><path d="M444,71.48l-8.09-1.18H399.38l-1.08-1.08,5.61-6.9v-53l-5.61-6.9,1.08-1.08H432.7L440.78,0l6.9,20.05-1.08,1.19-5.28-4.1H423.85V27.82h12.51l3.24-2.91,1.07,1.18v19.3l-1.07,1.3-3.24-2.81H423.85V54.45H442.4l6.36-5.39,1.08,1.29Z"/><path d="M60.73,137,74.62,100.3,73.19,95h33.37L108,96.44l-7.45,7.73L108.86,199l7.44,9.17-1.43,1.43H78.78l-1.43-1.43,6-9.17-3.72-47.41h-.29L58.87,204.15H57.44L37,151.58h-.28L32.94,199l6,9.17-1.43,1.43H1.43L0,208.16,7.45,199l8.31-94.82L8.31,96.44,9.74,95H44.55l-1.44,5.3L57,137l2,7.16Z"/><path d="M162.54,93.57c25.07,0,44.4,19.48,44.4,58.73S187.61,211,162.54,211s-44.4-19.48-44.4-58.72S137.47,93.57,162.54,93.57Zm0,26.64c-9.45,0-16.47,8.74-16.47,32.09s7,32.08,16.47,32.08S179,175.64,179,152.3,172,120.21,162.54,120.21Z"/><path d="M216.65,165.62v-60l-7.45-9.16L210.64,95h37.24l1.43,1.44-4.58,9.16v64.75c0,9.88,5.15,14.89,10.6,14.89s10.59-5,10.59-14.89V105.6l-4.58-9.16L262.77,95H300l1.44,1.44L294,105.6v60c0,29.65-15.18,45.55-38.67,45.55S216.65,195.27,216.65,165.62Z"/><path d="M369,105.6l-6-9.16L364.41,95h34.95l1.43,1.44-7.45,9.16v90l1.58,14L375,212,340.2,155.88h-.28V199l6,9.17-1.43,1.43H309.55l-1.43-1.43,7.45-9.17V105.6l-7.45-9.16L309.55,95h28.22l.71,4.3,30.23,51.42H369Z"/><path d="M422.3,208.16l7.45-9.17V117.64H409.41l-5.58,4.87-1.44-1,7.74-27.93L420.87,95h45.69l10.75-1.43L485,121.5l-1.43,1L478,117.64H457.68V199l7.45,9.17-1.43,1.43h-40Z"/><path d="M512.8,209.59H477.28l-1.43-1.43,6-9.17,24.06-91.81-5.73-10.74L501.63,95h43.25l1.44,1.44-5.73,10.74L564.65,199l6,9.17-1.44,1.43H533.71l-1.43-1.43,5.87-9.17-2.86-12.46H511.22L508.36,199l5.87,9.17Zm3.58-46h13.75l-5.59-24.92-1.28-7.45L522,138.69Z"/><path d="M618.88,96.44l-7.45,9.16V199l7.45,9.17-1.44,1.43h-40l-1.43-1.43L583.5,199V105.6l-7.45-9.16L577.48,95h40Z"/><path d="M688.2,105.6l-6-9.16L683.62,95h35L720,96.44l-7.45,9.16v90l1.58,14L694.22,212l-34.81-56.14h-.28V199l6,9.17-1.43,1.43h-35l-1.43-1.43,7.45-9.17V105.6l-7.45-9.16L628.76,95H657l.71,4.3,30.23,51.42h.28Z"/><path d="M142.64,348.88l-1.43-1.43,5.73-10.74-24.06-91.82-6-9.16,1.43-1.43h37.39l1.43,1.43-5.87,9.16,12.46,55.44,1.29,7.44,1.29-7.44,12.46-55.44-5.88-9.16,1.44-1.43h35.95l1.43,1.43-6,9.16L181.6,336.71l5.73,10.74-1.43,1.43Z"/><path d="M237.41,348.88H201.88l-1.43-1.43,6-9.17,24.06-91.81-5.73-10.74,1.43-1.43h43.26l1.43,1.43-5.73,10.74,24.07,91.81,6,9.17-1.43,1.43H258.32l-1.44-1.43,5.88-9.17-2.87-12.46H235.83L233,338.28l5.87,9.17Zm3.58-46h13.75L249.15,278l-1.29-7.45L246.57,278Z"/><path d="M352.87,348.88H301.45L300,347.45l7.45-9.17V244.89L300,235.73l1.44-1.43h40l1.43,1.43-7.45,9.16v81.5h26.07l8.45-7.16,1.43,1.72-7.73,29.51Z"/><path d="M426.76,348.88H375.34l-1.43-1.43,7.45-9.17V244.89l-7.45-9.16,1.43-1.43h40l1.43,1.43-7.44,9.16v81.5h26.07l8.45-7.16,1.43,1.72-7.74,29.51Z"/><path d="M511.4,350.46l-10.74-1.58H449.23l-1.43-1.43,7.45-9.17V244.89l-7.45-9.16,1.43-1.43h47.13l10.74-1.72,9.17,28.07-1.44,1.58-7-5.45H483.18v22.78h18.05l4.29-3.87,1.44,1.58v28.5l-1.44,1.72-4.29-3.73H483.18v22.63h26.07l8.45-7.16,1.43,1.72Z"/><path d="M566.19,267.38,575.78,242l-4.44-6.3,1.43-1.43h32.66l1.43,1.43-6,6.3L576.93,306.2v32.08l7.45,7.74-1.44,2.86H541.41L540,346l7.45-7.74V306.2L523.5,242l-6-6.3,1.43-1.43H553l1.43,1.43L550,242l9.6,25.35,3.29,11.89Z"/></g></g></svg>