<svg xmlns="http://www.w3.org/2000/svg" viewBox="0 0 720 961.43"><title>23-jiji</title><g id="Layer_2" data-name="Layer 2"><g id="Layer_1-2" data-name="Layer 1"><path d="M0,956.8V903.31A187.26,187.26,0,0,0,30.39,906c39.64,0,46.9-16.52,46.9-55.48v-391h56.8v396.3c0,68-27.11,105.69-91.17,105.69A216.29,216.29,0,0,1,0,956.8"/><path d="M65.4,347.14a40.29,40.29,0,1,1,40.29,40.31A40,40,0,0,1,65.4,347.14"/><rect x="280.59" y="375.4" width="56.79" height="350.08" transform="translate(-298.72 379.71) rotate(-45)"/><path d="M715.37,452.83H661.88a187.1,187.1,0,0,0,2.63-30.39c0-39.64-16.51-46.9-55.48-46.9H218v-56.8H614.3c68,0,105.7,27.11,105.7,91.17a216.22,216.22,0,0,1-4.63,42.92"/><rect x="133.95" y="115.45" width="350.08" height="56.79" transform="translate(-11.22 260.62) rotate(-45)"/></g></g></svg>